<svg width="70" height="70" viewBox="0 0 70 70" fill="none" xmlns="http://www.w3.org/2000/svg">
<path d="M47.2195 5.8335H22.7779C12.1612 5.8335 5.83203 12.1627 5.83203 22.7793V47.1918C5.83203 57.8377 12.1612 64.1668 22.7779 64.1668H47.1904C57.807 64.1668 64.1362 57.8377 64.1362 47.221V22.7793C64.1654 12.1627 57.8362 5.8335 47.2195 5.8335ZM50.3404 29.0502L43.6029 37.7418C42.757 38.821 41.5612 39.521 40.1904 39.6668C38.8195 39.8418 37.4779 39.4627 36.3987 38.6168L31.0612 34.4168C30.857 34.2418 30.6237 34.2418 30.507 34.271C30.3904 34.271 30.1862 34.3293 30.0112 34.5627L23.0695 43.5752C22.632 44.1293 21.9904 44.421 21.3487 44.421C20.882 44.421 20.4154 44.2752 20.007 43.9543C19.0445 43.2252 18.8695 41.8543 19.5987 40.8918L26.5404 31.8793C27.3862 30.8002 28.582 30.1002 29.9529 29.9252C31.2945 29.7502 32.6654 30.1293 33.7445 30.9752L39.082 35.1752C39.2862 35.3502 39.4904 35.3502 39.6362 35.321C39.7529 35.321 39.957 35.2627 40.132 35.0293L46.8695 26.3377C47.5987 25.3752 48.9987 25.2002 49.932 25.9585C50.8945 26.746 51.0695 28.1168 50.3404 29.0502Z" fill="white"/>
</svg>
