<svg width="70" height="70" viewBox="0 0 70 70" fill="none" xmlns="http://www.w3.org/2000/svg">
<path d="M47.2195 5.8335H22.7779C12.1612 5.8335 5.83203 12.1627 5.83203 22.7793V47.1918C5.83203 57.8377 12.1612 64.1668 22.7779 64.1668H47.1904C57.807 64.1668 64.1362 57.8377 64.1362 47.221V22.7793C64.1654 12.1627 57.8362 5.8335 47.2195 5.8335ZM28.9029 47.221C28.9029 49.0877 27.3862 50.6043 25.4904 50.6043C23.6237 50.6043 22.107 49.0877 22.107 47.221V37.7127C22.107 35.846 23.6237 34.3293 25.4904 34.3293C27.3862 34.3293 28.9029 35.846 28.9029 37.7127V47.221ZM47.8904 47.221C47.8904 49.0877 46.3737 50.6043 44.507 50.6043C42.6112 50.6043 41.0945 49.0877 41.0945 47.221V22.7793C41.0945 20.9127 42.6112 19.396 44.507 19.396C46.3737 19.396 47.8904 20.9127 47.8904 22.7793V47.221Z" fill="white"/>
</svg>
