<svg width="70" height="70" viewBox="0 0 70 70" fill="none" xmlns="http://www.w3.org/2000/svg">
<path d="M64.1649 48.1252V56.8752C64.1649 60.9002 60.8982 64.1668 56.8732 64.1668H36.0482C33.4524 64.1668 32.1691 61.046 33.9774 59.2085L51.0982 41.7085C51.6524 41.1543 52.4107 40.8335 53.1691 40.8335H56.8732C60.8982 40.8335 64.1649 44.1002 64.1649 48.1252Z" fill="white"/>
<path d="M53.5784 32.9289L45.6742 40.8331L38.4992 47.9789C36.6617 49.8164 33.5117 48.5331 33.5117 45.9373C33.5117 36.5748 33.5117 21.1748 33.5117 21.1748C33.5117 20.3873 33.8326 19.6581 34.3576 19.1039L37.0409 16.4206C39.8992 13.5623 44.5076 13.5623 47.3659 16.4206L53.5492 22.6039C56.4367 25.4623 56.4367 30.0706 53.5784 32.9289Z" fill="white"/>
<path d="M21.8737 5.8335H13.1237C8.7487 5.8335 5.83203 8.75016 5.83203 13.1252V52.5002C5.83203 53.2877 5.91953 54.0752 6.06536 54.8335C6.15286 55.2127 6.24036 55.5918 6.35703 55.971C6.50286 56.4085 6.6487 56.846 6.8237 57.2543C6.85286 57.2835 6.85286 57.3127 6.85286 57.3127C6.88203 57.3127 6.88203 57.3127 6.85286 57.3418C7.2612 58.1585 7.72786 58.946 8.28203 59.6752C8.60286 60.0543 8.9237 60.4043 9.24453 60.7543C9.56536 61.1043 9.91536 61.396 10.2945 61.6877L10.3237 61.7168C11.0529 62.271 11.8404 62.7377 12.657 63.146C12.6862 63.1168 12.6862 63.1168 12.6862 63.146C13.1237 63.3502 13.5612 63.496 14.0279 63.6418C14.407 63.7585 14.7862 63.846 15.1654 63.9335C15.9237 64.0793 16.7112 64.1668 17.4987 64.1668C18.6945 64.1668 19.9195 63.9918 21.057 63.6127C21.3779 63.496 21.6987 63.3793 22.0195 63.2335C23.0404 62.8252 24.032 62.2418 24.907 61.4835C25.1695 61.2793 25.4612 61.0168 25.7237 60.7543L25.8404 60.6377C27.882 58.5377 29.1654 55.6502 29.1654 52.5002V13.1252C29.1654 8.75016 26.2487 5.8335 21.8737 5.8335ZM17.4987 56.8752C15.0779 56.8752 13.1237 54.921 13.1237 52.5002C13.1237 50.0793 15.0779 48.1252 17.4987 48.1252C19.9195 48.1252 21.8737 50.0793 21.8737 52.5002C21.8737 54.921 19.9195 56.8752 17.4987 56.8752Z" fill="white"/>
</svg>
