<svg width="24" height="24" viewBox="0 0 24 24" fill="none" xmlns="http://www.w3.org/2000/svg">
<path d="M11.492 2.78906H7.753C4.678 2.78906 2.75 4.96606 2.75 8.04806V16.3621C2.75 19.4441 4.669 21.6211 7.753 21.6211H16.577C19.662 21.6211 21.581 19.4441 21.581 16.3621V12.3341" stroke="white" stroke-width="1.5" stroke-linecap="round" stroke-linejoin="round"/>
<path fill-rule="evenodd" clip-rule="evenodd" d="M8.82666 10.921L16.2997 3.44799C17.2307 2.51799 18.7397 2.51799 19.6707 3.44799L20.8877 4.66499C21.8187 5.59599 21.8187 7.10599 20.8877 8.03599L13.3787 15.545C12.9717 15.952 12.4197 16.181 11.8437 16.181H8.09766L8.19166 12.401C8.20566 11.845 8.43266 11.315 8.82666 10.921Z" stroke="white" stroke-width="1.5" stroke-linecap="round" stroke-linejoin="round"/>
<path d="M15.1641 4.60254L19.7301 9.16854" stroke="white" stroke-width="1.5" stroke-linecap="round" stroke-linejoin="round"/>
</svg>
