<svg width="24" height="24" viewBox="0 0 70 70" fill="none" xmlns="http://www.w3.org/2000/svg">
<path d="M63.2036 20.2708C61.337 13.9416 56.0578 8.66242 49.7286 6.79576C44.9161 5.39576 41.5911 5.51242 39.287 7.23326C36.5161 9.30409 36.1953 13.0374 36.1953 15.6916V22.9541C36.1953 30.1291 39.462 33.7749 45.8786 33.7749H54.2495C56.8745 33.7749 60.637 33.4541 62.7078 30.6833C64.487 28.4083 64.6328 25.0833 63.2036 20.2708Z" fill="white"/>
<path d="M55.1533 38.9669C54.3949 38.0919 53.2866 37.596 52.1491 37.596H41.7074C36.5741 37.596 32.4033 33.4252 32.4033 28.2919V17.8502C32.4033 16.7127 31.9074 15.6044 31.0324 14.846C30.1866 14.0877 29.0199 13.7377 27.9116 13.8835C21.0574 14.7585 14.7574 18.521 10.6449 24.1794C6.50326 29.8669 4.98659 36.8085 6.29909 43.7502C8.19493 53.7835 16.2158 61.8044 26.2783 63.7002C27.8824 64.021 29.4866 64.1669 31.0908 64.1669C36.3699 64.1669 41.4741 62.5335 45.8199 59.3544C51.4783 55.2419 55.2408 48.9419 56.1158 42.0877C56.2616 40.9502 55.9116 39.8127 55.1533 38.9669Z" fill="white"/>
</svg>
