<svg width="30" height="30" viewBox="0 0 30 30" fill="none" xmlns="http://www.w3.org/2000/svg">
<rect width="30" height="30" rx="4" fill="black"/>
<path d="M11.8889 16.3333L14.1111 19L17.2222 15L21.2222 20.3333H8.77778M23 21.2222V8.77778C23 7.79111 22.2 7 21.2222 7H8.77778C8.30628 7 7.8541 7.1873 7.5207 7.5207C7.1873 7.8541 7 8.30628 7 8.77778V21.2222C7 21.6937 7.1873 22.1459 7.5207 22.4793C7.8541 22.8127 8.30628 23 8.77778 23H21.2222C21.6937 23 22.1459 22.8127 22.4793 22.4793C22.8127 22.1459 23 21.6937 23 21.2222Z" fill="white"/>
</svg>
