<svg width="862" height="16" viewBox="0 0 862 6" fill="none" xmlns="http://www.w3.org/2000/svg">
<path d="M0.333333 3C0.333333 4.47276 1.52724 5.66667 3 5.66667C4.47276 5.66667 5.66667 4.47276 5.66667 3C5.66667 1.52724 4.47276 0.333333 3 0.333333C1.52724 0.333333 0.333333 1.52724 0.333333 3ZM856.333 3C856.333 4.47276 857.527 5.66667 859 5.66667C860.473 5.66667 861.667 4.47276 861.667 3C861.667 1.52724 860.473 0.333333 859 0.333333C857.527 0.333333 856.333 1.52724 856.333 3ZM3 3.5H859V2.5H3V3.5Z" fill="#49FFB3"/>
</svg>
