<svg width="70" height="70" viewBox="0 0 70 70" fill="none" xmlns="http://www.w3.org/2000/svg">
<path d="M52.4987 8.75H17.4987C11.0529 8.75 5.83203 13.9417 5.83203 20.3292V49.6708C5.83203 56.0583 11.0529 61.25 17.4987 61.25H52.4987C58.9445 61.25 64.1654 56.0583 64.1654 49.6708V20.3292C64.1654 13.9417 58.9445 8.75 52.4987 8.75ZM24.7904 20.9125C28.4945 20.9125 31.5279 23.9458 31.5279 27.65C31.5279 31.3542 28.4945 34.3875 24.7904 34.3875C21.0862 34.3875 18.0529 31.3542 18.0529 27.65C18.0529 23.9458 21.0862 20.9125 24.7904 20.9125ZM36.0779 48.5917C35.8154 48.8833 35.407 49.0583 34.9987 49.0583H14.582C14.1737 49.0583 13.7654 48.8833 13.5029 48.5917C13.2404 48.3 13.0945 47.8917 13.1237 47.4833C13.6195 42.5833 17.5279 38.7042 22.4279 38.2375C23.9737 38.0917 25.5779 38.0917 27.1237 38.2375C32.0237 38.7042 35.9612 42.5833 36.4279 47.4833C36.4862 47.8917 36.3404 48.3 36.0779 48.5917ZM55.4154 48.8542H49.582C48.3862 48.8542 47.3945 47.8625 47.3945 46.6667C47.3945 45.4708 48.3862 44.4792 49.582 44.4792H55.4154C56.6112 44.4792 57.6029 45.4708 57.6029 46.6667C57.6029 47.8625 56.6112 48.8542 55.4154 48.8542ZM55.4154 37.1875H43.7487C42.5529 37.1875 41.5612 36.1958 41.5612 35C41.5612 33.8042 42.5529 32.8125 43.7487 32.8125H55.4154C56.6112 32.8125 57.6029 33.8042 57.6029 35C57.6029 36.1958 56.6112 37.1875 55.4154 37.1875ZM55.4154 25.5208H40.832C39.6362 25.5208 38.6445 24.5292 38.6445 23.3333C38.6445 22.1375 39.6362 21.1458 40.832 21.1458H55.4154C56.6112 21.1458 57.6029 22.1375 57.6029 23.3333C57.6029 24.5292 56.6112 25.5208 55.4154 25.5208Z" fill="white"/>
</svg>
