<svg width="36" height="36" viewBox="0 0 36 36" fill="none" xmlns="http://www.w3.org/2000/svg">
<path fill-rule="evenodd" clip-rule="evenodd" d="M31.2101 11.4353L30.2765 9.81516C29.4866 8.44428 27.7362 7.97136 26.3634 8.75795V8.75795C25.71 9.14289 24.9302 9.25211 24.1962 9.06151C23.4621 8.87091 22.834 8.39615 22.4504 7.74194C22.2036 7.3261 22.071 6.85247 22.0659 6.36894V6.36894C22.0882 5.59371 21.7957 4.84248 21.2552 4.28638C20.7146 3.73028 19.9719 3.41667 19.1964 3.41699H17.3154C16.5556 3.41698 15.8271 3.71975 15.2911 4.2583C14.7552 4.79684 14.4559 5.52677 14.4595 6.28656V6.28656C14.437 7.85527 13.1588 9.11509 11.59 9.11493C11.1064 9.10991 10.6328 8.97729 10.217 8.73049V8.73049C8.84422 7.9439 7.09379 8.41682 6.30393 9.7877L5.30164 11.4353C4.51274 12.8045 4.97922 14.5538 6.34512 15.3483V15.3483C7.23298 15.8609 7.77992 16.8083 7.77992 17.8335C7.77992 18.8587 7.23298 19.806 6.34512 20.3186V20.3186C4.98096 21.1078 4.51396 22.8529 5.30164 24.2179V24.2179L6.24901 25.8518C6.61909 26.5196 7.24003 27.0123 7.97441 27.221C8.7088 27.4298 9.49608 27.3372 10.1621 26.9639V26.9639C10.8167 26.5819 11.5969 26.4772 12.3291 26.6732C13.0614 26.8691 13.685 27.3494 14.0614 28.0074C14.3082 28.4232 14.4408 28.8968 14.4458 29.3804V29.3804C14.4458 30.9652 15.7306 32.2499 17.3154 32.2499H19.1964C20.7758 32.25 22.0584 30.9736 22.0659 29.3941V29.3941C22.0623 28.6319 22.3634 27.8999 22.9024 27.361C23.4413 26.822 24.1733 26.5209 24.9355 26.5245C25.4179 26.5375 25.8896 26.6695 26.3085 26.909V26.909C27.6777 27.6979 29.427 27.2314 30.2216 25.8655V25.8655L31.2101 24.2179C31.5928 23.5611 31.6978 22.7789 31.5019 22.0444C31.3061 21.31 30.8255 20.6839 30.1666 20.3049V20.3049C29.5078 19.9258 29.0272 19.2997 28.8313 18.5653C28.6355 17.8308 28.7405 17.0486 29.1232 16.3918C29.372 15.9574 29.7322 15.5972 30.1666 15.3483V15.3483C31.5243 14.5542 31.9897 12.8151 31.2101 11.449V11.449V11.4353Z" stroke="white" stroke-width="1.5" stroke-linecap="round" stroke-linejoin="round"/>
<circle cx="18.2628" cy="17.8336" r="3.95423" stroke="white" stroke-width="1.5" stroke-linecap="round" stroke-linejoin="round"/>
</svg>
